<?xml version="1.0" encoding="utf-8"?>
<!-- Generator: Adobe Illustrator 16.0.0, SVG Export Plug-In . SVG Version: 6.00 Build 0)  -->
<!DOCTYPE svg PUBLIC "-//W3C//DTD SVG 1.1//EN" "http://www.w3.org/Graphics/SVG/1.1/DTD/svg11.dtd">
<svg version="1.1" id="Layer_1" xmlns="http://www.w3.org/2000/svg" xmlns:xlink="http://www.w3.org/1999/xlink" x="0px" y="0px"
	 width="447.87px" height="170.08px" viewBox="0 0 447.87 170.08" enable-background="new 0 0 447.87 170.08" xml:space="preserve">
<g>
	<g>
		<path fill="#202020" d="M31.796,54.082h11.056v15.479H31.796c-4.275,0-7.923,1.512-10.947,4.532
			c-3.022,3.023-4.534,6.671-4.534,10.947c0,4.275,1.512,7.923,4.534,10.944c3.023,3.023,6.671,4.534,10.947,4.534h11.056v15.479
			H31.796c-8.551,0-15.85-3.022-21.893-9.067c-6.043-6.044-9.066-13.339-9.066-21.89c0-8.55,3.023-15.848,9.066-21.893
			C15.946,57.104,23.245,54.082,31.796,54.082"/>
		<path fill="#202020" d="M94.199,63.149c6.044,6.044,9.066,13.342,9.066,21.892c0,8.551-3.022,15.846-9.066,21.89
			c-6.045,6.045-13.341,9.067-21.893,9.067c-8.55,0-15.848-3.022-21.891-9.067c-6.044-6.044-9.066-13.339-9.066-21.89
			c0-8.55,3.022-15.848,9.066-21.892c6.043-6.045,13.341-9.067,21.891-9.067C80.857,54.082,88.154,57.104,94.199,63.149
			 M83.253,95.985c3.021-3.021,4.532-6.669,4.532-10.944s-1.511-7.925-4.532-10.947c-3.023-3.021-6.672-4.532-10.947-4.532
			c-4.274,0-7.924,1.512-10.945,4.532c-3.023,3.022-4.534,6.672-4.534,10.947s1.51,7.923,4.534,10.944
			c3.021,3.023,6.671,4.534,10.945,4.534C76.581,100.52,80.23,99.009,83.253,95.985"/>
		<path fill="#202020" d="M105.255,96.097V54.082h15.479v42.015c0,1.209,0.434,2.248,1.303,3.117
			c0.871,0.87,1.909,1.306,3.119,1.306h8.845V54.082h15.48v61.916l-24.325-0.044v0.044c-5.485,0-10.172-1.946-14.064-5.837
			C107.201,106.27,105.255,101.58,105.255,96.097"/>
		<path fill="#202020" d="M175.442,93.886h-22.113l-0.044-15.479h22.158c1.208,0,2.247-0.436,3.117-1.306
			c0.869-0.868,1.305-1.907,1.305-3.117c0-1.209-0.436-2.247-1.305-3.118c-0.87-0.869-1.909-1.304-3.117-1.304h-22.113V54.082
			h24.324c4.895,0,9.066,1.947,12.516,5.839c3.451,3.891,5.174,8.578,5.174,14.063c0,4.6-1.224,8.639-3.67,12.118
			c2.477,3.509,3.716,7.577,3.716,12.207l-0.045,17.689h-15.479V98.309c0-1.21-0.436-2.249-1.305-3.118
			C177.689,94.319,176.65,93.886,175.442,93.886"/>
		<path fill="#202020" d="M199.898,54.082h15.479v4.423c0,6.191,2.801,11.939,8.402,17.248l10.704,10.127
			c3.39,3.421,5.086,7.564,5.086,12.429c0,4.893-1.726,9.065-5.175,12.514c-3.45,3.451-7.622,5.176-12.516,5.176h-24.191V100.52
			h24.191c0.619,0,1.142-0.215,1.569-0.642c0.426-0.428,0.642-0.951,0.642-1.569c0-0.592-0.193-1.091-0.575-1.504l-8.138-7.783
			c-10.321-9.436-15.479-19.606-15.479-30.517V54.082z"/>
		<path fill="#202020" d="M283.617,69.562h-42.059V54.082h42.059V69.562z M257.038,100.52h26.579v15.479h-42.059V76.194h42.059
			v15.479h-26.579V100.52z"/>
		<path fill="#FFAB03" d="M298.919,91.674l15.215-15.479h11.057c4.895,0,8.55,1.945,10.968,5.839
			c1.473,2.417,2.211,5.157,2.211,8.227c0,1.827-0.266,3.773-0.796,5.837c-1.476,5.483-4.46,10.173-8.955,14.064
			c-4.498,3.891-9.194,5.837-14.087,5.837h-24.324l4.158-15.479h22.113c1.208,0,2.365-0.436,3.47-1.306
			c1.106-0.869,1.821-1.908,2.146-3.117c0.117-0.413,0.177-0.797,0.177-1.15c0-0.736-0.222-1.399-0.663-1.989
			c-0.648-0.854-1.576-1.283-2.786-1.283H298.919z M333.594,69.562h-30.96l4.157-15.479h42.016L333.594,69.562z"/>
		<path fill="#FFAB03" d="M359.907,115.998c-6.104,0-10.732-2.167-13.887-6.501c-2.094-2.831-3.14-6.06-3.14-9.686
			c0-1.886,0.279-3.861,0.84-5.926c0.974-3.688,3.671-8.153,8.094-13.401l22.467-26.402h15.479l-25.962,30.959
			c-2.093,2.21-3.626,5.157-4.6,8.845c-0.176,0.619-0.265,1.209-0.265,1.769c0,1.091,0.324,2.063,0.973,2.919
			c0.944,1.298,2.329,1.946,4.156,1.946c1.828,0,3.562-0.648,5.196-1.946c1.638-1.298,2.706-2.858,3.207-4.688
			c0.531-1.975,0.798-3.731,0.798-5.265c0-1.354-0.208-2.55-0.62-3.58l-1.371-4.423h15.788c0.973,3.185,1.459,6.087,1.459,8.711
			c0,1.623-0.19,3.142-0.574,4.557c-1.621,6.103-5.173,11.315-10.657,15.633C371.803,113.838,366.011,115.998,359.907,115.998"/>
		<path fill="#FFAB03" d="M444.336,63.148c1.799,3.509,2.697,7.43,2.697,11.764c0,3.155-0.473,6.531-1.417,10.129
			c-2.3,8.551-6.633,15.846-13,21.89c-6.37,6.045-12.915,9.067-19.638,9.067c-6.724,0-11.647-3.022-14.771-9.067
			c-1.799-3.477-2.698-7.368-2.698-11.676c0-3.184,0.486-6.59,1.459-10.214c2.271-8.55,6.59-15.848,12.959-21.893
			c6.367-6.045,12.915-9.066,19.635-9.066C436.286,54.082,441.21,57.104,444.336,63.148 M425.407,69.562
			c-2.447,0-4.94,1.511-7.477,4.532c-2.534,3.022-4.361,6.672-5.483,10.947c-0.648,2.388-0.973,4.569-0.973,6.544
			c0,1.593,0.205,3.053,0.62,4.378c0.912,3.038,2.594,4.557,5.04,4.557c2.448,0,4.939-1.513,7.476-4.534
			c2.534-3.021,4.378-6.669,5.527-10.944c0.619-2.359,0.93-4.526,0.93-6.503c0-1.592-0.206-3.08-0.619-4.466
			C429.534,71.063,427.854,69.562,425.407,69.562"/>
	</g>
</g>
</svg>
