<?xml version="1.0" encoding="utf-8"?>
<!-- Generator: Adobe Illustrator 16.0.0, SVG Export Plug-In . SVG Version: 6.00 Build 0)  -->
<!DOCTYPE svg PUBLIC "-//W3C//DTD SVG 1.1//EN" "http://www.w3.org/Graphics/SVG/1.1/DTD/svg11.dtd">
<svg version="1.1" id="Layer_1" xmlns="http://www.w3.org/2000/svg" xmlns:xlink="http://www.w3.org/1999/xlink" x="0px" y="0px"
	 width="447.87px" height="170.08px" viewBox="0 0 447.87 170.08" enable-background="new 0 0 447.87 170.08" xml:space="preserve">
<g>
	<g>
		<g>
			<path fill="#202020" d="M31.796,37.765h11.056v15.479H31.796c-4.275,0-7.924,1.512-10.947,4.532
				c-3.021,3.023-4.533,6.671-4.533,10.947c0,4.275,1.512,7.923,4.533,10.944c3.023,3.023,6.672,4.534,10.947,4.534h11.056v15.479
				H31.796c-8.551,0-15.85-3.023-21.893-9.068C3.86,84.57,0.837,77.275,0.837,68.724c0-8.55,3.023-15.848,9.066-21.893
				C15.946,40.788,23.245,37.765,31.796,37.765"/>
			<path fill="#202020" d="M94.198,46.833c6.045,6.044,9.066,13.342,9.066,21.892c0,8.551-3.021,15.846-9.066,21.889
				c-6.045,6.045-13.341,9.068-21.893,9.068c-8.549,0-15.848-3.023-21.891-9.068c-6.045-6.043-9.066-13.338-9.066-21.889
				c0-8.55,3.021-15.848,9.066-21.892c6.043-6.045,13.342-9.067,21.891-9.067C80.857,37.765,88.153,40.788,94.198,46.833
				 M83.253,79.668c3.021-3.021,4.532-6.669,4.532-10.944s-1.511-7.925-4.532-10.947c-3.023-3.021-6.672-4.532-10.947-4.532
				c-4.273,0-7.924,1.512-10.945,4.532c-3.023,3.022-4.533,6.672-4.533,10.947s1.51,7.923,4.533,10.944
				c3.021,3.023,6.672,4.534,10.945,4.534C76.581,84.203,80.229,82.692,83.253,79.668"/>
			<path fill="#202020" d="M105.255,79.78V37.765h15.479V79.78c0,1.209,0.434,2.248,1.304,3.117c0.87,0.87,1.908,1.306,3.118,1.306
				h8.845V37.765h15.48v61.917l-24.325-0.045v0.045c-5.485,0-10.173-1.947-14.063-5.838
				C107.201,89.953,105.255,85.263,105.255,79.78"/>
			<path fill="#202020" d="M175.442,77.569h-22.113l-0.045-15.479h22.158c1.207,0,2.246-0.436,3.117-1.306
				c0.869-0.868,1.305-1.907,1.305-3.117c0-1.209-0.436-2.247-1.305-3.118c-0.871-0.869-1.91-1.304-3.117-1.304h-22.113V37.765
				h24.323c4.895,0,9.065,1.947,12.516,5.839c3.45,3.891,5.175,8.578,5.175,14.063c0,4.6-1.225,8.639-3.671,12.118
				c2.477,3.509,3.716,7.577,3.716,12.207l-0.045,17.69h-15.479v-17.69c0-1.21-0.436-2.249-1.305-3.118
				C177.688,78.002,176.649,77.569,175.442,77.569"/>
			<path fill="#202020" d="M199.897,37.765h15.48v4.423c0,6.191,2.801,11.939,8.401,17.248l10.704,10.127
				c3.39,3.421,5.086,7.564,5.086,12.429c0,4.893-1.726,9.065-5.175,12.514c-3.45,3.451-7.622,5.176-12.516,5.176h-24.19V84.203
				h24.19c0.619,0,1.142-0.215,1.569-0.642c0.426-0.428,0.642-0.951,0.642-1.569c0-0.592-0.192-1.091-0.575-1.504l-8.137-7.783
				c-10.321-9.436-15.48-19.606-15.48-30.517V37.765z"/>
			<path fill="#202020" d="M283.617,53.245h-42.059V37.765h42.059V53.245z M257.038,84.203h26.579v15.479h-42.059V59.877h42.059
				v15.479h-26.579V84.203z"/>
			<path fill="#FFAB03" d="M298.919,75.357l15.215-15.479h11.057c4.895,0,8.55,1.945,10.968,5.839
				c1.473,2.417,2.211,5.157,2.211,8.227c0,1.827-0.266,3.773-0.796,5.837c-1.476,5.483-4.46,10.173-8.955,14.064
				c-4.498,3.891-9.194,5.838-14.087,5.838h-24.324l4.158-15.479h22.113c1.208,0,2.365-0.436,3.47-1.306
				c1.106-0.869,1.821-1.908,2.146-3.117c0.117-0.413,0.177-0.797,0.177-1.15c0-0.736-0.222-1.399-0.663-1.989
				c-0.648-0.854-1.576-1.283-2.786-1.283H298.919z M333.594,53.245h-30.96l4.157-15.479h42.016L333.594,53.245z"/>
			<path fill="#FFAB03" d="M359.907,99.682c-6.104,0-10.732-2.168-13.887-6.502c-2.094-2.83-3.14-6.059-3.14-9.685
				c0-1.886,0.279-3.861,0.84-5.926c0.974-3.688,3.671-8.153,8.094-13.401l22.467-26.402h15.479l-25.962,30.959
				c-2.093,2.21-3.626,5.157-4.6,8.845c-0.176,0.619-0.265,1.209-0.265,1.769c0,1.091,0.324,2.063,0.973,2.919
				c0.944,1.298,2.329,1.946,4.156,1.946c1.828,0,3.562-0.648,5.196-1.946c1.638-1.298,2.706-2.858,3.207-4.688
				c0.531-1.975,0.798-3.731,0.798-5.265c0-1.354-0.208-2.55-0.62-3.58l-1.371-4.423h15.788c0.973,3.185,1.459,6.087,1.459,8.711
				c0,1.623-0.19,3.142-0.574,4.557c-1.621,6.103-5.173,11.316-10.657,15.632C371.803,97.521,366.011,99.682,359.907,99.682"/>
			<path fill="#FFAB03" d="M444.336,46.832c1.799,3.509,2.697,7.43,2.697,11.764c0,3.155-0.473,6.531-1.417,10.129
				c-2.3,8.551-6.633,15.846-13,21.889c-6.37,6.045-12.915,9.068-19.638,9.068c-6.724,0-11.647-3.023-14.771-9.068
				c-1.799-3.477-2.698-7.368-2.698-11.675c0-3.184,0.486-6.59,1.459-10.214c2.271-8.55,6.59-15.848,12.959-21.893
				c6.367-6.045,12.915-9.066,19.635-9.066C436.286,37.765,441.21,40.787,444.336,46.832 M425.407,53.245
				c-2.447,0-4.94,1.511-7.477,4.532c-2.534,3.022-4.361,6.672-5.483,10.947c-0.648,2.388-0.973,4.569-0.973,6.544
				c0,1.593,0.205,3.053,0.62,4.378c0.912,3.038,2.594,4.557,5.04,4.557c2.448,0,4.939-1.513,7.476-4.534
				c2.534-3.021,4.378-6.669,5.527-10.944c0.619-2.359,0.93-4.526,0.93-6.503c0-1.592-0.206-3.08-0.619-4.466
				C429.534,54.747,427.854,53.245,425.407,53.245"/>
		</g>
	</g>
	<g>
		<path fill="#202020" d="M10.356,126.143l3.938-18.871H7.308l0.508-2.426h16.762l-0.506,2.426h-6.93l-3.938,18.871H10.356z"/>
		<path fill="#202020" d="M22.763,126.143l4.445-21.297h2.629l-1.699,8.178c0.979-0.949,1.891-1.629,2.732-2.041
			s1.707-0.617,2.6-0.617c1.277,0,2.27,0.338,2.979,1.01c0.705,0.674,1.059,1.563,1.059,2.666c0,0.543-0.154,1.539-0.463,2.992
			l-1.906,9.109h-2.627l1.961-9.342c0.281-1.355,0.42-2.209,0.42-2.557c0-0.504-0.174-0.914-0.523-1.234
			c-0.346-0.32-0.852-0.479-1.508-0.479c-0.951,0-1.855,0.248-2.719,0.748c-0.861,0.498-1.537,1.18-2.025,2.047
			c-0.49,0.867-0.938,2.264-1.344,4.191l-1.381,6.625H22.763z"/>
		<path fill="#202020" d="M50.64,120.896l2.557,0.262c-0.369,1.27-1.215,2.475-2.535,3.617c-1.322,1.143-2.896,1.715-4.729,1.715
			c-1.143,0-2.191-0.264-3.146-0.791c-0.951-0.527-1.678-1.297-2.178-2.303c-0.498-1.008-0.746-2.154-0.746-3.443
			c0-1.684,0.387-3.32,1.168-4.902c0.779-1.584,1.789-2.76,3.029-3.529c1.24-0.771,2.58-1.156,4.023-1.156
			c1.838,0,3.309,0.572,4.408,1.715s1.648,2.701,1.648,4.678c0,0.756-0.068,1.531-0.203,2.324H42.577
			c-0.039,0.301-0.057,0.57-0.057,0.813c0,1.443,0.33,2.545,0.992,3.305c0.664,0.762,1.477,1.141,2.436,1.141
			c0.9,0,1.785-0.295,2.658-0.885C49.476,122.863,50.155,122.012,50.64,120.896z M42.999,117.076h8.656
			c0.012-0.27,0.016-0.465,0.016-0.58c0-1.316-0.328-2.326-0.988-3.029c-0.658-0.703-1.506-1.053-2.541-1.053
			c-1.125,0-2.148,0.389-3.072,1.162C44.144,114.352,43.454,115.518,42.999,117.076z"/>
		<path fill="#202020" d="M63.917,126.143l4.445-21.297h2.629l-4.445,21.297H63.917z"/>
		<path fill="#202020" d="M82.062,120.896l2.555,0.262c-0.367,1.27-1.213,2.475-2.535,3.617c-1.318,1.143-2.896,1.715-4.727,1.715
			c-1.143,0-2.191-0.264-3.146-0.791c-0.953-0.527-1.68-1.297-2.178-2.303c-0.498-1.008-0.75-2.154-0.75-3.443
			c0-1.684,0.391-3.32,1.17-4.902c0.781-1.584,1.791-2.76,3.031-3.529c1.238-0.771,2.58-1.156,4.021-1.156
			c1.842,0,3.313,0.572,4.41,1.715s1.648,2.701,1.648,4.678c0,0.756-0.068,1.531-0.203,2.324H73.999
			c-0.039,0.301-0.061,0.57-0.061,0.813c0,1.443,0.334,2.545,0.996,3.305c0.664,0.762,1.477,1.141,2.434,1.141
			c0.902,0,1.787-0.295,2.658-0.885C80.899,122.863,81.577,122.012,82.062,120.896z M74.419,117.076h8.658
			c0.01-0.27,0.016-0.465,0.016-0.58c0-1.316-0.33-2.326-0.988-3.029s-1.506-1.053-2.541-1.053c-1.125,0-2.148,0.389-3.072,1.162
			C75.565,114.352,74.876,115.518,74.419,117.076z"/>
		<path fill="#202020" d="M97.677,124.225c-0.91,0.783-1.787,1.359-2.631,1.721c-0.842,0.363-1.742,0.545-2.701,0.545
			c-1.422,0-2.57-0.418-3.441-1.258c-0.873-0.836-1.309-1.91-1.309-3.217c0-0.861,0.195-1.623,0.59-2.287
			c0.393-0.664,0.912-1.195,1.561-1.598s1.441-0.691,2.383-0.865c0.59-0.115,1.711-0.209,3.361-0.275
			c1.652-0.066,2.838-0.242,3.553-0.523c0.203-0.717,0.307-1.313,0.307-1.787c0-0.609-0.225-1.088-0.67-1.438
			c-0.609-0.484-1.502-0.727-2.672-0.727c-1.104,0-2.008,0.244-2.709,0.732c-0.703,0.49-1.213,1.186-1.533,2.086l-2.658-0.232
			c0.541-1.531,1.402-2.703,2.578-3.516c1.176-0.814,2.66-1.221,4.453-1.221c1.908,0,3.418,0.455,4.531,1.367
			c0.852,0.678,1.277,1.559,1.277,2.643c0,0.824-0.121,1.777-0.363,2.861l-0.855,3.836c-0.271,1.221-0.406,2.213-0.406,2.977
			c0,0.486,0.105,1.182,0.318,2.094h-2.658C97.835,125.639,97.735,125,97.677,124.225z M98.651,118.326
			c-0.371,0.145-0.764,0.256-1.186,0.334c-0.42,0.078-1.127,0.16-2.113,0.248c-1.529,0.135-2.609,0.307-3.24,0.516
			c-0.629,0.207-1.104,0.541-1.424,0.994c-0.318,0.455-0.479,0.959-0.479,1.51c0,0.736,0.254,1.342,0.764,1.816
			c0.508,0.475,1.232,0.713,2.17,0.713c0.873,0,1.709-0.23,2.514-0.691c0.803-0.459,1.438-1.102,1.904-1.924
			C98.024,121.018,98.388,119.848,98.651,118.326z"/>
		<path fill="#202020" d="M103.821,126.143l3.225-15.428h2.326l-0.656,3.152c0.795-1.191,1.572-2.072,2.332-2.645
			s1.537-0.857,2.332-0.857c0.523,0,1.166,0.189,1.932,0.566l-1.076,2.441c-0.453-0.33-0.951-0.494-1.494-0.494
			c-0.922,0-1.865,0.512-2.834,1.539c-0.967,1.027-1.729,2.871-2.281,5.535l-1.307,6.189H103.821z"/>
		<path fill="#202020" d="M113.729,126.143l3.225-15.428h2.383l-0.566,2.688c1.035-1.055,2.004-1.826,2.904-2.311
			s1.82-0.727,2.758-0.727c1.25,0,2.232,0.338,2.945,1.018c0.709,0.678,1.066,1.582,1.066,2.717c0,0.572-0.125,1.473-0.377,2.701
			l-1.961,9.342h-2.629l2.049-9.777c0.201-0.949,0.303-1.652,0.303-2.105c0-0.516-0.176-0.93-0.529-1.25
			c-0.355-0.32-0.867-0.479-1.533-0.479c-1.346,0-2.543,0.484-3.596,1.453c-1.049,0.967-1.824,2.627-2.316,4.98l-1.496,7.178
			H113.729z"/>
		<path fill="#202020" d="M130.173,126.143l3.225-15.428h2.629l-3.225,15.428H130.173z M134.009,107.824l0.625-2.979h2.611
			l-0.623,2.979H134.009z"/>
		<path fill="#202020" d="M136.884,126.143l3.225-15.428h2.385l-0.568,2.688c1.035-1.055,2.004-1.826,2.906-2.311
			c0.9-0.484,1.82-0.727,2.76-0.727c1.248,0,2.229,0.338,2.939,1.018c0.713,0.678,1.07,1.582,1.07,2.717
			c0,0.572-0.129,1.473-0.379,2.701l-1.961,9.342h-2.629l2.047-9.777c0.205-0.949,0.307-1.652,0.307-2.105
			c0-0.516-0.178-0.93-0.529-1.25c-0.355-0.32-0.865-0.479-1.533-0.479c-1.348,0-2.547,0.484-3.598,1.453
			c-1.051,0.967-1.822,2.627-2.314,4.98l-1.496,7.178H136.884z"/>
		<path fill="#202020" d="M153.284,127.537l2.658,0.246c-0.02,0.602,0.055,1.051,0.219,1.352c0.164,0.299,0.426,0.531,0.783,0.695
			c0.475,0.215,1.09,0.32,1.846,0.32c1.59,0,2.732-0.41,3.428-1.234c0.455-0.551,0.877-1.754,1.266-3.602l0.26-1.25
			c-1.365,1.385-2.818,2.078-4.357,2.078c-1.561,0-2.863-0.574-3.914-1.723c-1.051-1.146-1.576-2.771-1.576-4.873
			c0-1.732,0.414-3.328,1.24-4.779c0.83-1.453,1.813-2.551,2.957-3.291c1.143-0.74,2.318-1.111,3.529-1.111
			c2.025,0,3.584,0.959,4.678,2.877l0.523-2.527h2.41l-3.107,14.889c-0.338,1.637-0.783,2.912-1.336,3.828s-1.32,1.625-2.303,2.129
			c-0.984,0.502-2.119,0.754-3.406,0.754c-1.238,0-2.309-0.158-3.203-0.479s-1.564-0.787-2.004-1.402
			c-0.441-0.615-0.662-1.318-0.662-2.113C153.212,128.078,153.235,127.816,153.284,127.537z M156.567,119.314
			c0,1.055,0.102,1.85,0.307,2.381c0.289,0.748,0.703,1.316,1.24,1.707c0.539,0.393,1.137,0.59,1.795,0.59
			c0.861,0,1.717-0.303,2.57-0.908s1.543-1.543,2.07-2.811c0.527-1.27,0.793-2.48,0.793-3.631c0-1.27-0.352-2.279-1.053-3.031
			c-0.703-0.75-1.572-1.125-2.609-1.125c-0.639,0-1.258,0.172-1.857,0.516c-0.602,0.344-1.162,0.867-1.68,1.568
			c-0.518,0.703-0.91,1.545-1.176,2.521C156.7,118.07,156.567,118.811,156.567,119.314z"/>
		<path fill="#202020" d="M178.241,126.143l4.445-21.297h2.629l-1.699,8.178c0.977-0.949,1.889-1.629,2.73-2.041
			c0.844-0.412,1.709-0.617,2.6-0.617c1.279,0,2.273,0.338,2.979,1.01c0.707,0.674,1.061,1.563,1.061,2.666
			c0,0.543-0.154,1.539-0.465,2.992l-1.902,9.109h-2.629l1.961-9.342c0.279-1.355,0.422-2.209,0.422-2.557
			c0-0.504-0.174-0.914-0.523-1.234s-0.852-0.479-1.512-0.479c-0.949,0-1.854,0.248-2.715,0.748
			c-0.861,0.498-1.537,1.18-2.027,2.047c-0.488,0.867-0.938,2.264-1.344,4.191l-1.381,6.625H178.241z"/>
		<path fill="#202020" d="M205.319,123.354c-1.85,2.092-3.744,3.137-5.68,3.137c-1.193,0-2.154-0.34-2.885-1.023
			s-1.096-1.52-1.096-2.508c0-0.646,0.164-1.762,0.492-3.34l1.859-8.904h2.631l-2.064,9.863c-0.174,0.822-0.26,1.463-0.26,1.916
			c0,0.582,0.176,1.035,0.529,1.359c0.355,0.326,0.875,0.486,1.563,0.486c0.734,0,1.455-0.18,2.156-0.537
			c0.703-0.359,1.309-0.844,1.818-1.451c0.506-0.611,0.92-1.334,1.238-2.166c0.217-0.533,0.463-1.467,0.744-2.803l1.393-6.668h2.631
			l-3.225,15.428h-2.428L205.319,123.354z"/>
		<path fill="#202020" d="M211.333,126.143l4.443-21.297h2.633l-1.586,7.611c0.834-0.764,1.59-1.305,2.268-1.619
			c0.676-0.314,1.385-0.473,2.119-0.473c1.443,0,2.646,0.539,3.611,1.613s1.445,2.639,1.445,4.691c0,1.365-0.193,2.615-0.582,3.748
			c-0.385,1.133-0.865,2.086-1.436,2.855c-0.574,0.77-1.164,1.385-1.773,1.844c-0.611,0.459-1.236,0.805-1.875,1.033
			c-0.639,0.225-1.254,0.34-1.846,0.34c-1.016,0-1.91-0.27-2.686-0.807s-1.381-1.357-1.818-2.463l-0.609,2.922H211.333z
			 M215.228,119.809l-0.018,0.492c0,1.318,0.316,2.32,0.945,3.008c0.629,0.689,1.416,1.031,2.354,1.031
			c0.92,0,1.766-0.322,2.535-0.967c0.77-0.643,1.402-1.648,1.895-3.014c0.494-1.363,0.74-2.623,0.74-3.775
			c0-1.297-0.311-2.307-0.936-3.021c-0.623-0.719-1.396-1.076-2.316-1.076c-0.949,0-1.82,0.365-2.615,1.098
			c-0.795,0.73-1.457,1.857-1.99,3.377C215.425,118.094,215.228,119.043,215.228,119.809z"/>
		<path fill="#202020" d="M236.509,126.143l2.803-13.395h-2.354l0.42-2.033h2.355l0.449-2.193c0.232-1.096,0.473-1.885,0.719-2.369
			c0.248-0.484,0.648-0.883,1.207-1.197c0.557-0.314,1.313-0.473,2.271-0.473c0.67,0,1.639,0.141,2.906,0.422l-0.48,2.295
			c-0.891-0.232-1.635-0.35-2.234-0.35c-0.516,0-0.906,0.129-1.17,0.387c-0.268,0.256-0.496,0.863-0.689,1.82l-0.35,1.658h2.934
			l-0.422,2.033h-2.934l-2.805,13.395H236.509z"/>
		<path fill="#202020" d="M244.874,120.287c0-3.012,0.887-5.506,2.658-7.482c1.465-1.625,3.381-2.439,5.754-2.439
			c1.857,0,3.359,0.582,4.496,1.744s1.707,2.73,1.707,4.705c0,1.773-0.359,3.422-1.076,4.947c-0.715,1.525-1.736,2.695-3.057,3.508
			c-1.322,0.814-2.715,1.221-4.176,1.221c-1.201,0-2.295-0.258-3.275-0.771c-0.984-0.512-1.734-1.238-2.252-2.178
			C245.134,122.604,244.874,121.518,244.874,120.287z M247.505,120.027c0,1.451,0.348,2.555,1.047,3.305
			c0.695,0.75,1.582,1.125,2.658,1.125c0.561,0,1.117-0.113,1.668-0.342c0.555-0.229,1.068-0.574,1.541-1.039
			c0.475-0.465,0.879-0.996,1.213-1.59c0.336-0.596,0.604-1.236,0.807-1.926c0.301-0.959,0.451-1.879,0.451-2.76
			c0-1.395-0.352-2.477-1.055-3.246c-0.701-0.771-1.586-1.156-2.65-1.156c-0.824,0-1.574,0.197-2.252,0.588
			c-0.678,0.393-1.291,0.967-1.838,1.723s-0.947,1.635-1.207,2.637C247.632,118.35,247.505,119.242,247.505,120.027z"/>
		<path fill="#202020" d="M260.954,126.143l3.229-15.428h2.322l-0.654,3.152c0.795-1.191,1.572-2.072,2.332-2.645
			c0.762-0.572,1.537-0.857,2.332-0.857c0.523,0,1.168,0.189,1.932,0.566l-1.074,2.441c-0.455-0.33-0.955-0.494-1.496-0.494
			c-0.922,0-1.863,0.512-2.832,1.539s-1.729,2.871-2.281,5.535l-1.307,6.189H260.954z"/>
		<path fill="#202020" d="M290.46,120.896l2.557,0.262c-0.369,1.27-1.213,2.475-2.535,3.617s-2.898,1.715-4.729,1.715
			c-1.143,0-2.193-0.264-3.145-0.791c-0.955-0.527-1.682-1.297-2.18-2.303c-0.5-1.008-0.748-2.154-0.748-3.443
			c0-1.684,0.391-3.32,1.168-4.902c0.781-1.584,1.791-2.76,3.029-3.529c1.24-0.771,2.58-1.156,4.023-1.156
			c1.842,0,3.311,0.572,4.412,1.715c1.098,1.143,1.646,2.701,1.646,4.678c0,0.756-0.066,1.531-0.205,2.324h-11.357
			c-0.039,0.301-0.059,0.57-0.059,0.813c0,1.443,0.33,2.545,0.996,3.305c0.662,0.762,1.473,1.141,2.432,1.141
			c0.902,0,1.789-0.295,2.658-0.885C289.298,122.863,289.976,122.012,290.46,120.896z M282.819,117.076h8.656
			c0.01-0.27,0.014-0.465,0.014-0.58c0-1.316-0.328-2.326-0.986-3.029c-0.66-0.703-1.506-1.053-2.541-1.053
			c-1.125,0-2.148,0.389-3.074,1.162C283.962,114.352,283.272,115.518,282.819,117.076z"/>
		<path fill="#202020" d="M294.644,126.143l6.711-7.83l-3.85-7.598h2.906l1.307,2.744c0.484,1.027,0.92,2.012,1.309,2.949
			l4.443-5.693h3.209l-6.477,7.801l3.893,7.627h-2.906l-1.539-3.137c-0.328-0.67-0.701-1.498-1.119-2.486l-4.59,5.623H294.644z"/>
		<path fill="#202020" d="M321.198,120.52l2.629,0.275c-0.66,1.93-1.596,3.359-2.813,4.293c-1.215,0.936-2.596,1.402-4.146,1.402
			c-1.674,0-3.033-0.541-4.074-1.627c-1.041-1.084-1.563-2.6-1.563-4.547c0-1.684,0.334-3.342,1.002-4.967
			c0.67-1.629,1.625-2.865,2.869-3.713c1.246-0.848,2.666-1.271,4.266-1.271c1.654,0,2.969,0.467,3.936,1.402
			c0.969,0.934,1.453,2.172,1.453,3.711l-2.586,0.174c-0.01-0.977-0.295-1.742-0.85-2.293c-0.557-0.555-1.289-0.828-2.201-0.828
			c-1.055,0-1.971,0.334-2.746,1c-0.773,0.67-1.381,1.684-1.822,3.045c-0.439,1.359-0.662,2.67-0.662,3.93
			c0,1.316,0.291,2.305,0.873,2.963c0.58,0.658,1.297,0.988,2.148,0.988s1.67-0.324,2.449-0.975
			C320.14,122.834,320.751,121.848,321.198,120.52z"/>
		<path fill="#202020" d="M336.757,120.896l2.555,0.262c-0.367,1.27-1.213,2.475-2.533,3.617c-1.322,1.143-2.898,1.715-4.729,1.715
			c-1.145,0-2.193-0.264-3.145-0.791c-0.955-0.527-1.682-1.297-2.18-2.303c-0.5-1.008-0.748-2.154-0.748-3.443
			c0-1.684,0.391-3.32,1.168-4.902c0.779-1.584,1.791-2.76,3.029-3.529c1.24-0.771,2.58-1.156,4.023-1.156
			c1.842,0,3.311,0.572,4.41,1.715s1.646,2.701,1.646,4.678c0,0.756-0.066,1.531-0.203,2.324h-11.357
			c-0.039,0.301-0.059,0.57-0.059,0.813c0,1.443,0.33,2.545,0.994,3.305c0.664,0.762,1.475,1.141,2.434,1.141
			c0.902,0,1.785-0.295,2.658-0.885C335.595,122.863,336.272,122.012,336.757,120.896z M329.114,117.076h8.658
			c0.01-0.27,0.014-0.465,0.014-0.58c0-1.316-0.328-2.326-0.986-3.029c-0.66-0.703-1.508-1.053-2.541-1.053
			c-1.125,0-2.15,0.389-3.074,1.162C330.259,114.352,329.569,115.518,329.114,117.076z"/>
		<path fill="#202020" d="M341.769,126.143l4.443-21.297h2.631l-4.447,21.297H341.769z"/>
		<path fill="#202020" d="M348.378,126.143l4.443-21.297h2.631l-4.445,21.297H348.378z"/>
		<path fill="#202020" d="M366.521,120.896l2.557,0.262c-0.367,1.27-1.213,2.475-2.535,3.617s-2.898,1.715-4.729,1.715
			c-1.143,0-2.191-0.264-3.145-0.791s-1.68-1.297-2.18-2.303c-0.498-1.008-0.748-2.154-0.748-3.443c0-1.684,0.389-3.32,1.17-4.902
			c0.779-1.584,1.789-2.76,3.029-3.529c1.24-0.771,2.58-1.156,4.023-1.156c1.842,0,3.311,0.572,4.408,1.715s1.648,2.701,1.648,4.678
			c0,0.756-0.068,1.531-0.203,2.324h-11.359c-0.039,0.301-0.057,0.57-0.057,0.813c0,1.443,0.33,2.545,0.994,3.305
			c0.664,0.762,1.475,1.141,2.434,1.141c0.898,0,1.785-0.295,2.658-0.885C365.358,122.863,366.036,122.012,366.521,120.896z
			 M358.88,117.076h8.658c0.01-0.27,0.014-0.465,0.014-0.58c0-1.316-0.33-2.326-0.988-3.029s-1.506-1.053-2.543-1.053
			c-1.123,0-2.146,0.389-3.07,1.162C360.024,114.352,359.335,115.518,358.88,117.076z"/>
		<path fill="#202020" d="M371.737,126.143l3.225-15.428h2.381l-0.566,2.688c1.037-1.055,2.006-1.826,2.906-2.311
			s1.818-0.727,2.758-0.727c1.25,0,2.232,0.338,2.941,1.018c0.713,0.678,1.07,1.582,1.07,2.717c0,0.572-0.127,1.473-0.377,2.701
			l-1.963,9.342h-2.629l2.047-9.777c0.203-0.949,0.307-1.652,0.307-2.105c0-0.516-0.178-0.93-0.531-1.25s-0.865-0.479-1.531-0.479
			c-1.348,0-2.545,0.484-3.596,1.453c-1.053,0.967-1.824,2.627-2.318,4.98l-1.496,7.178H371.737z"/>
		<path fill="#202020" d="M398.931,120.52l2.629,0.275c-0.66,1.93-1.598,3.359-2.813,4.293c-1.215,0.936-2.596,1.402-4.146,1.402
			c-1.674,0-3.033-0.541-4.074-1.627c-1.041-1.084-1.563-2.6-1.563-4.547c0-1.684,0.336-3.342,1.002-4.967
			c0.67-1.629,1.625-2.865,2.869-3.713s2.668-1.271,4.264-1.271c1.656,0,2.969,0.467,3.938,1.402
			c0.969,0.934,1.453,2.172,1.453,3.711l-2.586,0.174c-0.012-0.977-0.295-1.742-0.85-2.293c-0.557-0.555-1.289-0.828-2.201-0.828
			c-1.057,0-1.971,0.334-2.746,1c-0.773,0.67-1.381,1.684-1.822,3.045c-0.441,1.359-0.662,2.67-0.662,3.93
			c0,1.316,0.291,2.305,0.873,2.963c0.58,0.658,1.297,0.988,2.148,0.988s1.67-0.324,2.449-0.975
			C397.87,122.834,398.485,121.848,398.931,120.52z"/>
		<path fill="#202020" d="M414.489,120.896l2.555,0.262c-0.367,1.27-1.213,2.475-2.535,3.617s-2.898,1.715-4.729,1.715
			c-1.141,0-2.191-0.264-3.145-0.791s-1.68-1.297-2.178-2.303c-0.5-1.008-0.75-2.154-0.75-3.443c0-1.684,0.391-3.32,1.17-4.902
			c0.781-1.584,1.789-2.76,3.027-3.529c1.242-0.771,2.582-1.156,4.025-1.156c1.84,0,3.309,0.572,4.41,1.715
			c1.098,1.143,1.648,2.701,1.648,4.678c0,0.756-0.068,1.531-0.203,2.324h-11.359c-0.039,0.301-0.061,0.57-0.061,0.813
			c0,1.443,0.332,2.545,0.996,3.305c0.662,0.762,1.475,1.141,2.432,1.141c0.902,0,1.789-0.295,2.66-0.885
			C413.325,122.863,414.003,122.012,414.489,120.896z M406.847,117.076h8.658c0.008-0.27,0.014-0.465,0.014-0.58
			c0-1.316-0.328-2.326-0.988-3.029c-0.658-0.703-1.506-1.053-2.541-1.053c-1.123,0-2.148,0.389-3.074,1.162
			C407.991,114.352,407.302,115.518,406.847,117.076z"/>
		<path fill="#202020" d="M420.429,126.143l0.625-2.979h2.979l-0.639,2.979H420.429z"/>
		<path fill="#202020" d="M428.694,126.143l0.625-2.979h2.979l-0.641,2.979H428.694z"/>
		<path fill="#202020" d="M436.96,126.143l0.625-2.979h2.979l-0.641,2.979H436.96z"/>
	</g>
</g>
</svg>
